<mxfile host="app.diagrams.net" modified="2023-06-02T17:04:06.317Z" agent="Mozilla/5.0 (X11; Linux x86_64) AppleWebKit/537.36 (KHTML, like Gecko) Chrome/112.0.0.0 Safari/537.36" etag="N9e6EI_1mEkBlNYt7Rku" version="21.3.7" type="device">
  <diagram id="C5RBs43oDa-KdzZeNtuy" name="Page-1">
    <mxGraphModel dx="3646" dy="1427" grid="1" gridSize="10" guides="1" tooltips="1" connect="1" arrows="1" fold="1" page="1" pageScale="1" pageWidth="827" pageHeight="1169" math="0" shadow="0">
      <root>
        <mxCell id="WIyWlLk6GJQsqaUBKTNV-0" />
        <mxCell id="WIyWlLk6GJQsqaUBKTNV-1" parent="WIyWlLk6GJQsqaUBKTNV-0" />
        <mxCell id="trriuHN3cWuxNPZrD0Fz-50" value="" style="verticalAlign=top;align=left;spacingTop=8;spacingLeft=2;spacingRight=12;shape=cube;size=10;direction=south;fontStyle=4;html=1;fillColor=#cfe2f3ff;strokeColor=#7EA6E0;" parent="WIyWlLk6GJQsqaUBKTNV-1" vertex="1">
          <mxGeometry x="-820" y="969" width="730" height="221" as="geometry" />
        </mxCell>
        <mxCell id="trriuHN3cWuxNPZrD0Fz-9" value="" style="verticalAlign=top;align=left;spacingTop=8;spacingLeft=2;spacingRight=12;shape=cube;size=10;direction=south;fontStyle=4;html=1;fillColor=#FFF2CC;strokeColor=#d6b656;" parent="WIyWlLk6GJQsqaUBKTNV-1" vertex="1">
          <mxGeometry x="-870" y="710" width="880" height="140" as="geometry" />
        </mxCell>
        <mxCell id="trriuHN3cWuxNPZrD0Fz-8" value="&lt;font style=&quot;font-size: 13px;&quot;&gt;&lt;font style=&quot;font-size: 14px;&quot;&gt;&lt;font style=&quot;font-size: 15px;&quot;&gt;&lt;font style=&quot;font-size: 16px;&quot;&gt;&lt;font style=&quot;font-size: 17px;&quot;&gt;Observation Routing &lt;/font&gt;&lt;/font&gt;&lt;/font&gt;&lt;/font&gt;&lt;/font&gt;" style="rounded=1;whiteSpace=wrap;html=1;fillColor=#FFF2CC;" parent="WIyWlLk6GJQsqaUBKTNV-1" vertex="1">
          <mxGeometry x="-850" y="750" width="190" height="70" as="geometry" />
        </mxCell>
        <mxCell id="trriuHN3cWuxNPZrD0Fz-16" value="&lt;font style=&quot;font-size: 13px;&quot;&gt;&lt;font style=&quot;font-size: 14px;&quot;&gt;&lt;font style=&quot;font-size: 15px;&quot;&gt;&lt;font style=&quot;font-size: 16px;&quot;&gt;&lt;font style=&quot;font-size: 17px;&quot;&gt;Observation Request Form &lt;/font&gt;&lt;/font&gt;&lt;/font&gt;&lt;/font&gt;&lt;/font&gt;" style="labelPosition=center;verticalLabelPosition=middle;align=center;html=1;shape=mxgraph.basic.shaded_button;dx=10;fillColor=#cfe2f3ff;strokeColor=none;whiteSpace=wrap;fontSize=15;" parent="WIyWlLk6GJQsqaUBKTNV-1" vertex="1">
          <mxGeometry x="-730" y="1039" width="190" height="80" as="geometry" />
        </mxCell>
        <mxCell id="trriuHN3cWuxNPZrD0Fz-17" value="Database" style="shape=datastore;whiteSpace=wrap;html=1;fontSize=15;fillColor=#d5e8d4;strokeColor=#82b366;" parent="WIyWlLk6GJQsqaUBKTNV-1" vertex="1">
          <mxGeometry x="-467.5" y="570" width="85" height="80" as="geometry" />
        </mxCell>
        <mxCell id="trriuHN3cWuxNPZrD0Fz-18" value="" style="verticalAlign=top;align=left;spacingTop=8;spacingLeft=2;spacingRight=12;shape=cube;size=10;direction=south;fontStyle=4;html=1;fontSize=15;fillColor=#e1d5e7;strokeColor=#9673A6;" parent="WIyWlLk6GJQsqaUBKTNV-1" vertex="1">
          <mxGeometry x="-662.5" y="370" width="475" height="140" as="geometry" />
        </mxCell>
        <mxCell id="trriuHN3cWuxNPZrD0Fz-22" value="&lt;font style=&quot;font-size: 13px;&quot;&gt;&lt;font style=&quot;font-size: 14px;&quot;&gt;&lt;font style=&quot;font-size: 15px;&quot;&gt;&lt;font style=&quot;font-size: 16px;&quot;&gt;&lt;font style=&quot;font-size: 17px;&quot;&gt;Camera Interface &lt;/font&gt;&lt;/font&gt;&lt;/font&gt;&lt;/font&gt;&lt;/font&gt;" style="rounded=1;whiteSpace=wrap;html=1;fillColor=#e1d5e7;strokeColor=#9673a6;" parent="WIyWlLk6GJQsqaUBKTNV-1" vertex="1">
          <mxGeometry x="-637.5" y="410" width="190" height="70" as="geometry" />
        </mxCell>
        <mxCell id="trriuHN3cWuxNPZrD0Fz-23" value="&lt;font style=&quot;font-size: 13px;&quot;&gt;&lt;font style=&quot;font-size: 14px;&quot;&gt;&lt;font style=&quot;font-size: 15px;&quot;&gt;&lt;font style=&quot;font-size: 16px;&quot;&gt;&lt;font style=&quot;font-size: 17px;&quot;&gt;Spectrograph Interface &lt;/font&gt;&lt;/font&gt;&lt;/font&gt;&lt;/font&gt;&lt;/font&gt;" style="rounded=1;whiteSpace=wrap;html=1;fillColor=#e1d5e7;strokeColor=#9673a6;" parent="WIyWlLk6GJQsqaUBKTNV-1" vertex="1">
          <mxGeometry x="-417.5" y="410" width="190" height="70" as="geometry" />
        </mxCell>
        <mxCell id="trriuHN3cWuxNPZrD0Fz-28" value="&lt;font style=&quot;font-size: 13px;&quot;&gt;&lt;font style=&quot;font-size: 14px;&quot;&gt;&lt;font style=&quot;font-size: 15px;&quot;&gt;&lt;font style=&quot;font-size: 16px;&quot;&gt;&lt;font style=&quot;font-size: 17px;&quot;&gt;File Writer Routing &lt;/font&gt;&lt;/font&gt;&lt;/font&gt;&lt;/font&gt;&lt;/font&gt;" style="rounded=1;whiteSpace=wrap;html=1;fillColor=#FFF2CC;" parent="WIyWlLk6GJQsqaUBKTNV-1" vertex="1">
          <mxGeometry x="-635" y="750" width="190" height="70" as="geometry" />
        </mxCell>
        <mxCell id="trriuHN3cWuxNPZrD0Fz-29" value="&lt;font style=&quot;font-size: 13px;&quot;&gt;&lt;font style=&quot;font-size: 14px;&quot;&gt;&lt;font style=&quot;font-size: 15px;&quot;&gt;&lt;font style=&quot;font-size: 16px;&quot;&gt;&lt;font style=&quot;font-size: 17px;&quot;&gt;Log Sheet Routing &lt;/font&gt;&lt;/font&gt;&lt;/font&gt;&lt;/font&gt;&lt;/font&gt;" style="rounded=1;whiteSpace=wrap;html=1;fillColor=#FFF2CC;" parent="WIyWlLk6GJQsqaUBKTNV-1" vertex="1">
          <mxGeometry x="-210" y="750" width="190" height="70" as="geometry" />
        </mxCell>
        <mxCell id="trriuHN3cWuxNPZrD0Fz-30" value="&lt;font style=&quot;font-size: 13px;&quot;&gt;&lt;font style=&quot;font-size: 14px;&quot;&gt;&lt;font style=&quot;font-size: 15px;&quot;&gt;&lt;font style=&quot;font-size: 16px;&quot;&gt;&lt;font style=&quot;font-size: 17px;&quot;&gt;Status Routing &lt;/font&gt;&lt;/font&gt;&lt;/font&gt;&lt;/font&gt;&lt;/font&gt;" style="rounded=1;whiteSpace=wrap;html=1;fillColor=#FFF2CC;" parent="WIyWlLk6GJQsqaUBKTNV-1" vertex="1">
          <mxGeometry x="-420" y="750" width="190" height="70" as="geometry" />
        </mxCell>
        <mxCell id="trriuHN3cWuxNPZrD0Fz-54" value="&lt;div&gt;&lt;font style=&quot;font-size: 13px;&quot;&gt;&lt;font style=&quot;font-size: 14px;&quot;&gt;&lt;font style=&quot;font-size: 15px;&quot;&gt;&lt;font style=&quot;font-size: 16px;&quot;&gt;&lt;font style=&quot;font-size: 17px;&quot;&gt;Log Sheet Display&lt;/font&gt;&lt;/font&gt;&lt;/font&gt;&lt;/font&gt;&lt;/font&gt;&lt;/div&gt;" style="rounded=1;whiteSpace=wrap;html=1;fillColor=#cfe2f3ff;" parent="WIyWlLk6GJQsqaUBKTNV-1" vertex="1">
          <mxGeometry x="-320" y="1099" width="190" height="70" as="geometry" />
        </mxCell>
        <mxCell id="trriuHN3cWuxNPZrD0Fz-55" value="&lt;div&gt;&lt;font style=&quot;font-size: 13px;&quot;&gt;&lt;font style=&quot;font-size: 14px;&quot;&gt;&lt;font style=&quot;font-size: 15px;&quot;&gt;&lt;font style=&quot;font-size: 16px;&quot;&gt;&lt;font style=&quot;font-size: 17px;&quot;&gt;Status Display&lt;/font&gt;&lt;/font&gt;&lt;/font&gt;&lt;/font&gt;&lt;/font&gt;&lt;/div&gt;" style="rounded=1;whiteSpace=wrap;html=1;fillColor=#cfe2f3ff;" parent="WIyWlLk6GJQsqaUBKTNV-1" vertex="1">
          <mxGeometry x="-320" y="1000" width="190" height="76" as="geometry" />
        </mxCell>
        <mxCell id="owQVnNh3VHmtOtl6PyjV-1" value="" style="endArrow=classic;html=1;rounded=0;entryX=0.5;entryY=1;entryDx=0;entryDy=0;exitX=0.473;exitY=-0.001;exitDx=0;exitDy=0;exitPerimeter=0;endFill=1;" parent="WIyWlLk6GJQsqaUBKTNV-1" source="trriuHN3cWuxNPZrD0Fz-16" target="trriuHN3cWuxNPZrD0Fz-8" edge="1">
          <mxGeometry width="50" height="50" relative="1" as="geometry">
            <mxPoint x="-600" y="900" as="sourcePoint" />
            <mxPoint x="-270" y="830" as="targetPoint" />
          </mxGeometry>
        </mxCell>
        <mxCell id="owQVnNh3VHmtOtl6PyjV-2" value="" style="endArrow=classic;dashed=1;html=1;dashPattern=1 3;strokeWidth=2;rounded=0;startArrow=none;startFill=0;endFill=1;entryX=0.5;entryY=1;entryDx=0;entryDy=0;exitX=0.5;exitY=0;exitDx=0;exitDy=0;" parent="WIyWlLk6GJQsqaUBKTNV-1" source="trriuHN3cWuxNPZrD0Fz-8" target="trriuHN3cWuxNPZrD0Fz-22" edge="1">
          <mxGeometry width="50" height="50" relative="1" as="geometry">
            <mxPoint x="-680" y="630" as="sourcePoint" />
            <mxPoint x="-540" y="540" as="targetPoint" />
          </mxGeometry>
        </mxCell>
        <mxCell id="owQVnNh3VHmtOtl6PyjV-11" value="SocketIO Emission" style="edgeLabel;html=1;align=center;verticalAlign=middle;resizable=0;points=[];" parent="owQVnNh3VHmtOtl6PyjV-2" vertex="1" connectable="0">
          <mxGeometry x="0.134" y="1" relative="1" as="geometry">
            <mxPoint x="1" as="offset" />
          </mxGeometry>
        </mxCell>
        <mxCell id="owQVnNh3VHmtOtl6PyjV-3" value="" style="endArrow=classic;dashed=1;html=1;dashPattern=1 3;strokeWidth=2;rounded=0;startArrow=none;startFill=0;endFill=1;entryX=0;entryY=1;entryDx=0;entryDy=0;exitX=0.75;exitY=0;exitDx=0;exitDy=0;" parent="WIyWlLk6GJQsqaUBKTNV-1" source="trriuHN3cWuxNPZrD0Fz-8" target="trriuHN3cWuxNPZrD0Fz-23" edge="1">
          <mxGeometry width="50" height="50" relative="1" as="geometry">
            <mxPoint x="-670" y="640" as="sourcePoint" />
            <mxPoint x="-510" y="420" as="targetPoint" />
          </mxGeometry>
        </mxCell>
        <mxCell id="owQVnNh3VHmtOtl6PyjV-8" value="SocketIO Emission" style="edgeLabel;html=1;align=center;verticalAlign=middle;resizable=0;points=[];" parent="owQVnNh3VHmtOtl6PyjV-3" vertex="1" connectable="0">
          <mxGeometry x="-0.2327" y="-1" relative="1" as="geometry">
            <mxPoint as="offset" />
          </mxGeometry>
        </mxCell>
        <mxCell id="owQVnNh3VHmtOtl6PyjV-6" value="&lt;h1&gt;&amp;nbsp;Back-end&lt;/h1&gt;&lt;p style=&quot;font-size: 15px;&quot;&gt;&lt;font style=&quot;font-size: 15px;&quot;&gt;&amp;nbsp;The back-end of the application is a messaging middleware:&amp;nbsp;&amp;nbsp;&lt;/font&gt;&lt;/p&gt;&lt;p style=&quot;font-size: 15px;&quot;&gt;&lt;font style=&quot;font-size: 15px;&quot;&gt;&amp;nbsp; &amp;nbsp; - handles requests from and passes data to the front-end&amp;nbsp;&lt;/font&gt;&lt;/p&gt;&lt;p style=&quot;font-size: 15px;&quot;&gt;&lt;font style=&quot;font-size: 15px;&quot;&gt;&amp;nbsp; &amp;nbsp; - reads and writes from the database&lt;/font&gt;&lt;/p&gt;&lt;p style=&quot;font-size: 15px;&quot;&gt;&lt;font style=&quot;font-size: 15px;&quot;&gt;&amp;nbsp; &amp;nbsp; - passes instructions to and gets results from the instruments&lt;/font&gt;&lt;/p&gt;" style="text;html=1;strokeColor=#D6B656;fillColor=#fff2cc;spacing=5;spacingTop=-20;whiteSpace=wrap;overflow=hidden;rounded=1;" parent="WIyWlLk6GJQsqaUBKTNV-1" vertex="1">
          <mxGeometry x="-230" y="520" width="450" height="180" as="geometry" />
        </mxCell>
        <mxCell id="owQVnNh3VHmtOtl6PyjV-9" value="" style="endArrow=classic;html=1;rounded=0;entryX=0.017;entryY=0.945;entryDx=0;entryDy=0;exitX=1;exitY=0;exitDx=0;exitDy=0;endFill=1;entryPerimeter=0;" parent="WIyWlLk6GJQsqaUBKTNV-1" source="trriuHN3cWuxNPZrD0Fz-8" target="trriuHN3cWuxNPZrD0Fz-17" edge="1">
          <mxGeometry width="50" height="50" relative="1" as="geometry">
            <mxPoint x="-450" y="650" as="sourcePoint" />
            <mxPoint x="-565" y="431" as="targetPoint" />
          </mxGeometry>
        </mxCell>
        <mxCell id="owQVnNh3VHmtOtl6PyjV-10" value="Write" style="edgeLabel;html=1;align=center;verticalAlign=middle;resizable=0;points=[];" parent="owQVnNh3VHmtOtl6PyjV-9" vertex="1" connectable="0">
          <mxGeometry x="0.0863" relative="1" as="geometry">
            <mxPoint as="offset" />
          </mxGeometry>
        </mxCell>
        <mxCell id="owQVnNh3VHmtOtl6PyjV-12" value="&lt;h1&gt;&amp;nbsp;Front-end&lt;/h1&gt;&lt;p style=&quot;font-size: 15px;&quot;&gt;&lt;font style=&quot;font-size: 15px;&quot;&gt;&amp;nbsp;The front-end of the application is a React Single-Page Application&lt;/font&gt;&lt;/p&gt;" style="text;html=1;strokeColor=#7EA6E0;fillColor=#dae8fc;spacing=5;spacingTop=-20;whiteSpace=wrap;overflow=hidden;rounded=1;" parent="WIyWlLk6GJQsqaUBKTNV-1" vertex="1">
          <mxGeometry x="-700" y="1210" width="460" height="80" as="geometry" />
        </mxCell>
        <mxCell id="owQVnNh3VHmtOtl6PyjV-13" value="&lt;h1&gt;&amp;nbsp;Instrument Interfaces&lt;/h1&gt;&lt;p style=&quot;font-size: 15px;&quot;&gt;&lt;font style=&quot;font-size: 15px;&quot;&gt;The instrument interfaces provide the ability for our system to connect and make requests to astronomical cameras and spectrographs.&lt;/font&gt;&lt;/p&gt;" style="text;html=1;strokeColor=#9673A6;fillColor=#e1d5e7;spacing=5;spacingTop=-20;whiteSpace=wrap;overflow=hidden;rounded=1;" parent="WIyWlLk6GJQsqaUBKTNV-1" vertex="1">
          <mxGeometry x="-630" y="210" width="420" height="120" as="geometry" />
        </mxCell>
        <mxCell id="owQVnNh3VHmtOtl6PyjV-15" value="" style="rounded=1;whiteSpace=wrap;html=1;fillColor=none;strokeWidth=2;strokeColor=#FF6666;" parent="WIyWlLk6GJQsqaUBKTNV-1" vertex="1">
          <mxGeometry x="-860" y="340" width="460" height="810" as="geometry" />
        </mxCell>
        <mxCell id="owQVnNh3VHmtOtl6PyjV-16" value="&lt;b&gt;&lt;font style=&quot;font-size: 17px;&quot;&gt;Observation Request Workflow&lt;/font&gt;&lt;/b&gt;" style="text;html=1;strokeColor=none;fillColor=none;align=center;verticalAlign=middle;whiteSpace=wrap;rounded=0;" parent="WIyWlLk6GJQsqaUBKTNV-1" vertex="1">
          <mxGeometry x="-840" y="370" width="100" height="90" as="geometry" />
        </mxCell>
      </root>
    </mxGraphModel>
  </diagram>
</mxfile>
